<svg width="100" height="50" viewBox="0 0 100 50" fill="none" xmlns="http://www.w3.org/2000/svg">
<rect width="100" height="50" fill="white"/>
<mask id="mask0_342_537" style="mask-type:luminance" maskUnits="userSpaceOnUse" x="84" y="3" width="8" height="12">
<path d="M91.9999 3.87891H84.9619V14.5895H91.9999V3.87891Z" fill="white"/>
</mask>
<g mask="url(#mask0_342_537)">
<mask id="mask1_342_537" style="mask-type:luminance" maskUnits="userSpaceOnUse" x="84" y="3" width="8" height="12">
<path d="M84.9658 3.87988V14.5886L91.9803 12.0541V3.87988H84.9658Z" fill="white"/>
</mask>
<g mask="url(#mask1_342_537)">
<path d="M77.9531 2H91.9713V14.5893H77.9531V2Z" fill="#FFC107"/>
</g>
</g>
<mask id="mask2_342_537" style="mask-type:luminance" maskUnits="userSpaceOnUse" x="77" y="2" width="15" height="4">
<path d="M92 2H77.9529V5.78455H92V2Z" fill="white"/>
</mask>
<g mask="url(#mask2_342_537)">
<mask id="mask3_342_537" style="mask-type:luminance" maskUnits="userSpaceOnUse" x="77" y="2" width="15" height="4">
<path d="M84.9656 2L77.9529 3.88053L84.9656 5.75926L91.9801 3.88053L84.9656 2Z" fill="white"/>
</mask>
<g mask="url(#mask3_342_537)">
<path d="M77.9529 2H91.9711V14.5893H77.9529V2Z" fill="#FFC107"/>
</g>
</g>
<path d="M74.5206 18.8223H78.3875L82.4701 25.0789L86.6025 18.8223L90.237 18.9052L84.2458 27.4853L90.5025 36.5965H86.6854L82.2709 29.9249L77.9892 36.5965H74.2053L80.462 27.4853L74.5206 18.8223Z" fill="#0046CE"/>
<path d="M64.6959 18.4238C65.9572 18.4238 67.1797 18.7226 68.3636 19.32C69.5474 19.9064 70.4491 20.6698 71.0687 21.6102C71.6661 22.5064 72.0645 23.552 72.2636 24.7469C72.4406 25.5656 72.5291 26.8711 72.5291 28.6635H59.5013C59.5567 30.4669 59.9826 31.9163 60.7792 33.0116C61.5758 34.0959 62.8095 34.638 64.4801 34.638C66.0401 34.638 67.2848 34.1236 68.2142 33.0946C68.7453 32.4972 69.1214 31.8057 69.3427 31.0201H72.2802C72.2028 31.6729 71.9428 32.4031 71.5002 33.2108C71.0687 34.0074 70.5819 34.6602 70.0398 35.1691C69.1325 36.0542 68.0095 36.6517 66.6708 36.9615C65.9516 37.1385 65.1384 37.227 64.2312 37.227C62.0184 37.227 60.1431 36.4249 58.6052 34.8206C57.0673 33.2053 56.2983 30.9482 56.2983 28.0495C56.2983 25.195 57.0728 22.8771 58.6218 21.0958C60.1707 19.3145 62.1954 18.4238 64.6959 18.4238ZM69.4589 26.2903C69.3372 24.9958 69.0551 23.9613 68.6125 23.1869C67.7938 21.7485 66.4274 21.0294 64.5133 21.0294C63.1414 21.0294 61.9907 21.5273 61.0614 22.523C60.132 23.5077 59.6396 24.7635 59.5843 26.2903H69.4589Z" fill="#0046CE"/>
<path d="M48.4318 13.8594H51.4523V18.8216H54.2902V21.2612H51.4523V32.8617C51.4523 33.4813 51.6625 33.8962 52.0829 34.1064C52.3152 34.2281 52.7025 34.2889 53.2446 34.2889C53.3884 34.2889 53.5433 34.2889 53.7093 34.2889C53.8753 34.2779 54.0689 34.2613 54.2902 34.2392V36.5958C53.9472 36.6954 53.5876 36.7673 53.2114 36.8115C52.8463 36.8558 52.448 36.8779 52.0165 36.8779C50.6225 36.8779 49.6765 36.5239 49.1786 35.8158C48.6807 35.0966 48.4318 34.1672 48.4318 33.0277V21.2612H46.0254V18.8216H48.4318V13.8594Z" fill="#0046CE"/>
<path d="M30.807 27.9165C30.807 29.8195 31.2109 31.4127 32.0185 32.6961C32.8262 33.9795 34.1207 34.6212 35.902 34.6212C37.285 34.6212 38.419 34.0293 39.3041 32.8455C40.2003 31.6506 40.6484 29.9412 40.6484 27.7174C40.6484 25.4714 40.1893 23.8118 39.2709 22.7386C38.3526 21.6543 37.2186 21.1122 35.8688 21.1122C34.3641 21.1122 33.1415 21.6875 32.2011 22.8382C31.2717 23.9888 30.807 25.6816 30.807 27.9165ZM35.3045 18.5066C36.6654 18.5066 37.805 18.7943 38.7233 19.3696C39.2543 19.7015 39.8573 20.2824 40.5322 21.1122V12.1338H43.4033V36.5962H40.7148V34.1234C40.0178 35.2187 39.1935 36.0098 38.242 36.4966C37.2905 36.9834 36.2007 37.2268 34.9726 37.2268C32.9922 37.2268 31.2772 36.397 29.8279 34.7374C28.3785 33.0668 27.6538 30.8484 27.6538 28.0825C27.6538 25.4935 28.3121 23.2531 29.6287 21.3611C30.9564 19.4581 32.8483 18.5066 35.3045 18.5066Z" fill="#0046CE"/>
<path d="M17.3975 18.4238C18.6588 18.4238 19.8814 18.7226 21.0652 19.32C22.2491 19.9064 23.1508 20.6698 23.7704 21.6102C24.3678 22.5064 24.7661 23.552 24.9653 24.7469C25.1423 25.5656 25.2308 26.8711 25.2308 28.6635H12.203C12.2583 30.4669 12.6843 31.9163 13.4809 33.0116C14.2775 34.0959 15.5111 34.638 17.1818 34.638C18.7418 34.638 19.9865 34.1236 20.9159 33.0946C21.4469 32.4972 21.8231 31.8057 22.0444 31.0201H24.9819C24.9044 31.6729 24.6444 32.4031 24.2019 33.2108C23.7704 34.0074 23.2835 34.6602 22.7414 35.1691C21.8342 36.0542 20.7112 36.6517 19.3724 36.9615C18.6533 37.1385 17.8401 37.227 16.9328 37.227C14.7201 37.227 12.8447 36.4249 11.3068 34.8206C9.76894 33.2053 9 30.9482 9 28.0495C9 25.195 9.77448 22.8771 11.3234 21.0958C12.8724 19.3145 14.8971 18.4238 17.3975 18.4238ZM22.1606 26.2903C22.0389 24.9958 21.7567 23.9613 21.3142 23.1869C20.4954 21.7485 19.129 21.0294 17.215 21.0294C15.843 21.0294 14.6924 21.5273 13.763 22.523C12.8337 23.5077 12.3413 24.7635 12.286 26.2903H22.1606Z" fill="#0046CE"/>
</svg>
